<?xml version="1.0" encoding="UTF-8"?>
<svg width="700pt" height="700pt" version="1.1" viewBox="0 0 700 700" xmlns="http://www.w3.org/2000/svg">
 <path d="m282.27 56.715c51.66-15.672 107.15-12.945 157.03 7.7148 49.875 20.656 91.043 57.969 116.49 105.58 25.449 47.609 33.602 102.57 23.07 155.51-10.535 52.945-39.098 100.6-80.828 134.85-41.727 34.25-94.039 52.965-148.02 52.965h-208.99c-9.4023 0-17.887-5.6406-21.52-14.312-3.6328-8.6719-1.7109-18.676 4.8828-25.383l28.043-28.508c8.3359-8.4766 10.121-25.039 0.51172-40.199-19.402-30.605-31.539-65.523-35.141-102.06-5.2891-53.723 8.2109-107.62 38.203-152.5 29.988-44.887 74.617-77.984 126.27-93.652zm-25.598 246.62c12.887 0 23.332-10.445 23.332-23.332s-10.445-23.332-23.332-23.332-23.336 10.445-23.336 23.332 10.449 23.332 23.336 23.332zm116.66-23.332c0 12.887-10.445 23.332-23.332 23.332s-23.332-10.445-23.332-23.332 10.445-23.332 23.332-23.332 23.332 10.445 23.332 23.332zm70 23.332c12.887 0 23.336-10.445 23.336-23.332s-10.449-23.332-23.336-23.332-23.332 10.445-23.332 23.332 10.445 23.332 23.332 23.332z" fill-rule="evenodd"/>
</svg>
